<!DOCTYPE svg PUBLIC "-//W3C//DTD SVG 1.1//EN" "http://www.w3.org/Graphics/SVG/1.1/DTD/svg11.dtd">
<!-- Uploaded to: SVG Repo, www.svgrepo.com, Transformed by: SVG Repo Mixer Tools -->
<svg version="1.1" id="Layer_1" xmlns="http://www.w3.org/2000/svg" xmlns:xlink="http://www.w3.org/1999/xlink" viewBox="0 0 512.001 512.001" xml:space="preserve" width="800px" height="800px" fill="#000000">
<g id="SVGRepo_bgCarrier" stroke-width="0"/>
<g id="SVGRepo_tracerCarrier" stroke-linecap="round" stroke-linejoin="round"/>
<g id="SVGRepo_iconCarrier"> <path style="fill:#F2F2F2;" d="M479.127,8.167l-26.652,26.652c0.008,0.008-85.85,143.637-85.85,143.637l23.109,23.109 c0,0,20.259-20.259,49.207-49.207C481.507,109.792,495.997,51.889,479.127,8.167z"/> <g> <path style="fill:#D9543C;" d="M195.488,315.27L34.819,495.026c11.747,11.747,30.796,11.739,42.543-0.008l133.531-133.531 L195.488,315.27z"/> <polygon style="fill:#D9543C;" points="335.897,209.184 349.547,222.834 303.329,269.051 257.112,253.645 334.141,207.428 "/> </g> <g> <path style="fill:#CCCCCC;" d="M210.893,330.676L61.956,479.613c-11.747,11.747-23.903,18.649-27.137,15.413 c-11.747-11.747-11.747-30.804,0-42.552l133.531-133.53L210.893,330.676z"/> <polygon style="fill:#CCCCCC;" points="334.141,207.428 272.518,269.051 260.785,226.508 307.004,180.29 "/> </g> <polygon style="fill:#D9543C;" points="303.329,269.051 280.221,292.16 249.408,276.754 287.924,253.645 "/> <polygon style="fill:#D9543C;" points="287.924,253.645 257.112,284.457 237.677,249.617 260.785,226.508 "/> <path style="fill:#CCCCCC;" d="M345.503,218.79l-11.362-11.362l-27.137-27.137L452.475,34.819 c4.399,30.419-6.818,64.606-36.643,94.431C386.007,159.074,345.503,218.79,345.503,218.79z"/> <polygon style="fill:#D9543C;" points="280.221,292.16 257.112,315.27 226.299,299.864 264.815,276.754 "/> <g> <polygon style="fill:#D9543C;" points="257.112,315.27 234.002,338.378 203.19,322.973 241.705,299.864 "/> <polygon style="fill:#D9543C;" points="264.815,276.754 234.002,307.567 214.568,272.726 237.677,249.617 "/> </g> <polygon style="fill:#D9543C;" points="241.705,299.864 210.893,330.676 191.459,295.834 214.568,272.726 "/> <polygon style="fill:#D9543C;" points="234.002,338.378 210.893,361.487 195.488,346.081 199.338,326.824 218.596,322.973 "/> <rect x="177.131" y="301.77" transform="matrix(-0.7071 0.7071 -0.7071 -0.7071 557.2286 411.106)" style="fill:#D9543C;" width="32.681" height="38.378"/> <path d="M486.749,5.227c-0.995-2.579-3.227-4.478-5.931-5.052c-2.699-0.566-5.513,0.261-7.469,2.216L301.232,174.508l-272.19,272.19 c-14.913,14.915-14.912,39.183,0.001,54.097c7.226,7.226,16.831,11.205,27.049,11.205c0.001,0,0,0,0.001,0 c10.217,0,19.823-3.978,27.049-11.203l272.189-272.189c2.946-2.947,3.165-7.579,0.671-10.785l19.063-19.064l9.003,8.681 c3.206,3.092,8.297,3.047,11.449-0.104l49.202-49.202C488.322,114.532,505.213,53.083,486.749,5.227z M280.227,280.602 l-30.989-30.99l11.553-11.553l30.99,30.99L280.227,280.602z M257.118,303.712l-30.99-30.989l11.554-11.554l30.989,30.99 L257.118,303.712z M234.01,326.82l-30.99-30.99l11.553-11.553l30.99,30.989L234.01,326.82z M210.9,349.929l-30.989-30.99 l11.553-11.553l30.989,30.99L210.9,349.929z M71.586,489.243c-4.139,4.14-9.641,6.419-15.494,6.419s-11.357-2.28-15.495-6.42 c-8.544-8.544-8.545-22.445-0.001-30.988l127.759-127.759l30.989,30.99L71.586,489.243z M303.337,257.493l-30.99-30.99 l34.664-34.664L338,222.829L303.337,257.493z M433.163,146.58l-43.528,43.529l-9.003-8.681c-3.205-3.093-8.297-3.047-11.449,0.104 l-24.687,24.687l-25.932-25.932L444.711,54.14c-2.32,23.863-14.879,49.555-34.654,69.332l-26.094,26.092 c-3.192,3.191-3.192,8.364-0.001,11.554c1.596,1.596,3.686,2.393,5.778,2.393c2.09,0,4.182-0.797,5.777-2.392l26.095-26.094 c27.705-27.706,42.557-64.571,39.439-97.226l14.255-14.255C484.491,63.376,468.505,111.24,433.163,146.58z"/> </g>
</svg>